<?xml version="1.0" encoding="UTF-8"?>
<svg version="1.1" xmlns="http://www.w3.org/2000/svg" width="964" height="1107">
<path d="M0 0 C318.12 0 636.24 0 964 0 C964 365.31 964 730.62 964 1107 C645.88 1107 327.76 1107 0 1107 C0 741.69 0 376.38 0 0 Z " fill="#FEFEFE" transform="translate(0,0)"/>
<path d="M0 0 C17.2513655 9.20072827 17.2513655 9.20072827 23.625 12.9375 C24.77282959 13.60567749 24.77282959 13.60567749 25.94384766 14.28735352 C30.94300116 17.20133762 35.93175045 20.13309082 40.921875 23.0625 C42.77662781 24.15126904 44.63138597 25.24002894 46.48617554 26.32873535 C47.74797868 27.06943029 49.00971752 27.81023478 50.27139282 28.55114746 C58.92576579 33.63229175 67.6072956 38.66176104 76.33300781 43.61962891 C81.78898493 46.7236004 87.21455229 49.87557191 92.62792969 53.05322266 C102.3690521 58.77125199 112.17398155 64.35453704 122.0625 69.8125 C130.11306131 74.25808094 138.08701756 78.77016291 145.9375 83.55859375 C151.59160801 86.98528079 157.33373088 90.26282949 163.0625 93.5625 C164.19623047 94.21597412 165.32996094 94.86944824 166.49804688 95.54272461 C171.14730478 98.21916912 175.79802011 100.89241955 180.46875 103.53125 C185.29265231 106.25720338 190.06008186 108.97705821 194.625 112.125 C197.75116822 114.2660551 200.89643144 115.9860494 204.3125 117.625 C210.1004763 120.42994236 215.56496407 123.66492973 221.0625 127 C226.9668257 130.58156072 232.86814641 134.09376627 238.9609375 137.34765625 C246.03133293 141.19184297 252.98551476 145.24879263 259.96386719 149.25683594 C262.04453813 150.45143151 264.12595657 151.64472582 266.20800781 152.83691406 C269.53606301 154.74274028 272.86199023 156.65223626 276.1875 158.5625 C277.19433838 159.13863037 278.20117676 159.71476074 279.23852539 160.30834961 C281.26178638 161.47288501 283.26863757 162.66644523 285.25714314 163.88938159 C287.93603243 165.48085221 290.62446682 166.68660793 293.51638496 167.84165031 C299.45190817 170.44472833 305.48890303 173.26094109 308.03745833 179.56708728 C309.61943054 186.94074359 309.37850288 194.46142934 309.20079147 201.96383215 C309.13862585 205.43613169 309.18171168 208.90743851 309.21118629 212.37994987 C309.24842542 218.46016204 309.21909857 224.53719694 309.14569855 230.61703873 C309.03686876 239.65676086 309.0316703 248.69448794 309.04745434 257.73474577 C309.07108345 272.94226195 309.01104421 288.1483685 308.90314102 303.35547447 C308.79659489 318.4099494 308.72734662 333.46383707 308.70779037 348.51868629 C308.70655306 349.45510058 308.70531575 350.39151487 308.70404094 351.35630535 C308.69795085 356.11197663 308.69252598 360.86764843 308.68735717 365.6233208 C308.64956018 399.29867783 308.52831823 432.97326815 308.35791016 466.64819336 C308.19256339 499.36071701 308.06507211 532.07303079 307.98876953 564.78588867 C307.98521832 566.29869118 307.98521832 566.29869118 307.98159538 567.84205536 C307.9578618 577.97027634 307.93489718 588.09849895 307.91249591 598.22672296 C307.86684537 618.85866411 307.81606283 639.49059159 307.76217651 660.12251282 C307.75970529 661.07111314 307.75723408 662.01971346 307.75468797 662.99705925 C307.58910532 726.33169175 307.30389503 789.66589873 307 853 C306.41654312 853.33209473 305.83308624 853.66418945 305.23194885 854.00634766 C302.53033893 855.54485498 299.82962027 857.08492059 297.12890625 858.625 C296.21161743 859.14707031 295.29432861 859.66914062 294.34924316 860.20703125 C285.65133069 865.16960865 277.06628749 870.31053021 268.49707031 875.49121094 C264.27336571 878.04327336 260.04330263 880.58472691 255.8125 883.125 C254.56545288 883.87414673 254.56545288 883.87414673 253.29321289 884.63842773 C248.00498187 887.8107428 242.69696714 890.94718707 237.375 894.0625 C229.41812005 898.72506569 221.55339039 903.53078085 213.69140625 908.35107422 C197.32416306 918.37868312 180.8950155 928.28168877 164.31982422 937.96191406 C150.30878131 946.1454283 136.41297889 954.50929469 122.58203125 962.99316406 C116.81826946 966.52028024 111.0072255 969.96136875 105.17626953 973.37597656 C100.6651416 976.01801439 96.16822762 978.68172267 91.6875 981.375 C91.08768311 981.73553467 90.48786621 982.09606934 89.86987305 982.4675293 C87.91296194 983.64454361 85.9564657 984.82224548 84 986 C73.71678159 992.18807409 63.42459549 998.3575797 53.0715332 1004.42822266 C48.03790089 1007.38209072 43.02897814 1010.37477234 38.02978516 1013.38647461 C31.30039393 1017.43383645 24.53257036 1021.41615119 17.76293945 1025.39575195 C12.97184547 1028.21835481 8.22974601 1031.08424599 3.57397461 1034.12597656 C2 1035 2 1035 0 1035 C0 693.45 0 351.9 0 0 Z " fill="#010101" transform="translate(49,36)"/>
<path d="M0 0 C3.5156635 1.4062654 6.49712396 2.74268824 9.74609375 4.58203125 C10.65520508 5.09564209 11.56431641 5.60925293 12.50097656 6.13842773 C13.4700293 6.69087158 14.43908203 7.24331543 15.4375 7.8125 C16.95102051 8.67113647 16.95102051 8.67113647 18.49511719 9.54711914 C26.509496 14.11048202 34.4625712 18.77408526 42.37670898 23.5090332 C48.5028269 27.16354901 54.71969551 30.61810587 61 34 C67.14937281 37.3377664 73.15856001 40.88119122 79.1484375 44.49584961 C84.45611868 47.69162547 89.82063238 50.77842157 95.20703125 53.83984375 C105.53927446 59.71439101 115.82985663 65.66124602 126 71.8125 C130.95472535 74.80652147 135.96041075 77.6673186 141.05859375 80.41015625 C150.31204369 85.41168896 159.44048267 90.54181189 168.26025391 96.2800293 C170.82007357 97.88704494 173.40477635 99.35472224 176.06640625 100.78515625 C193.4230345 110.17580956 210.63269686 119.86148851 227.4921875 130.12109375 C235.35947242 134.90096518 243.33325273 139.45641311 251.375 143.9375 C263.69243593 150.80112041 275.89364936 157.81426717 287.875 165.25 C292.53025022 168.13648559 297.254414 170.80223679 302.08203125 173.38671875 C305.46220982 175.25554572 308.76256777 177.24449726 312.0625 179.25 C317.59864927 182.60920351 323.20191206 185.81538155 328.875 188.9375 C334.59218369 192.08602396 340.26218864 195.29390347 345.875 198.625 C353.45508882 203.12050722 361.09561087 207.50761816 368.75 211.875 C369.35304962 212.2192099 369.95609924 212.5634198 370.5774231 212.9180603 C376.69591325 216.40999978 382.81742625 219.89660226 388.94140625 223.37890625 C397.34393562 228.16153918 405.70682995 232.98873755 413.97729492 237.99658203 C418.17425197 240.52943781 422.43263885 242.90335956 426.75 245.22265625 C439.1190834 251.98699874 451.28268555 259.13413511 463.421875 266.30078125 C481.58721931 277.03000608 481.58721931 277.03000608 499.9375 287.4375 C506.60572685 291.1562319 513.19542777 295.00843631 519.76028442 298.90628052 C521.47926098 299.92520691 523.20237872 300.9371364 524.92553711 301.94897461 C526.49380249 302.88495483 526.49380249 302.88495483 528.09375 303.83984375 C529.51204102 304.68083618 529.51204102 304.68083618 530.95898438 305.53881836 C531.63251953 306.0210083 532.30605469 306.50319824 533 307 C533 307.66 533 308.32 533 309 C532.50411377 309.26514404 532.00822754 309.53028809 531.49731445 309.8034668 C520.59314824 315.65786012 509.93521303 321.78954563 499.44970703 328.36523438 C493.48878287 332.09903683 487.45805495 335.62825745 481.328125 339.078125 C477.80699007 341.11145644 474.36922143 343.25862925 470.9375 345.4375 C463.41758489 350.20004991 455.74950086 354.70192801 448.0625 359.1875 C433.34302166 367.77813507 418.72063122 376.52328552 404.1328125 385.3359375 C397.73542917 389.19209697 391.30897354 392.99324894 384.8586731 396.76043701 C383.00989495 397.84019931 381.16116237 398.92003948 379.3125 400 C378.69628784 400.3599707 378.08007568 400.71994141 377.44519043 401.09082031 C364.43059778 408.69953381 351.53979384 416.50539396 338.67773438 424.36865234 C337.79408203 424.90699707 336.91042969 425.4453418 336 426 C334.65131836 426.84812256 334.65131836 426.84812256 333.27539062 427.71337891 C331 429 331 429 329 429 C328.74272572 414.64878422 328.54964611 400.29792723 328.43006611 385.94487667 C328.37266955 379.27980087 328.29483611 372.61657582 328.17016602 365.95239258 C328.05059017 359.5202216 327.98486317 353.08954014 327.95635033 346.65634346 C327.93603387 344.20294297 327.89635748 341.74962357 327.83696938 339.29685783 C327.39065221 320.09908286 327.39065221 320.09908286 331.34628296 314.93972778 C335.69561946 312.04222382 339.89605796 310.89367276 345 310 C342.73078822 307.33033908 340.06605475 305.84333394 337.0234375 304.16796875 C334.04802111 302.45049867 331.23734283 300.50623538 328.40625 298.5625 C324.18939136 295.8242801 319.77568607 293.42605595 315.37890625 290.9921875 C307.65964382 286.71691919 300.11339216 282.2501394 292.65942383 277.52758789 C288.07073892 274.63308197 283.40695054 271.96138018 278.6171875 269.41015625 C272.25298106 265.98108383 266.06817716 262.22421203 259.84765625 258.54296875 C259.11820801 258.11209961 258.38875977 257.68123047 257.63720703 257.23730469 C256.22438546 256.40246983 254.81251724 255.56601828 253.40185547 254.72753906 C249.51506715 252.43041819 245.59234632 250.22239454 241.62109375 248.07421875 C236.20770716 245.13851735 230.91088236 242.03310928 225.625 238.875 C214.82094421 232.45632031 203.92540093 226.2091375 193 220 C180.9704727 213.15504802 168.97322705 206.26431114 157.06054688 199.21777344 C153.54377856 197.13938003 150.02155466 195.07026928 146.5 193 C145.0924312 192.17190342 143.68487912 191.3437784 142.27734375 190.515625 C139.35356693 188.79567712 136.42898499 187.07710773 133.50390625 185.359375 C132.76615967 184.92592773 132.02841309 184.49248047 131.26831055 184.04589844 C129.81037809 183.18937321 128.35221156 182.33324627 126.89379883 181.47753906 C123.13615915 179.26959092 119.40267742 177.02895867 115.6875 174.75 C111.17713084 172.02369809 106.50253916 169.69215182 101.76171875 167.39453125 C99.10773551 166.0544011 96.5494486 164.52966916 94 163 C94 195.67 94 228.34 94 262 C123.07907394 261.72344775 123.07907394 261.72344775 152.15722656 261.36938477 C157.81591797 261.33776855 157.81591797 261.33776855 160.4755249 261.33189392 C162.31011891 261.32123256 164.14466771 261.29679629 165.97894287 261.26097107 C178.16268092 261.035166 185.97803773 261.55959224 196 269 C197.77653104 270.00636687 199.56671155 270.98938098 201.375 271.9375 C212.13265685 277.76519812 222.68020935 283.96555004 233.25 290.125 C234.25571045 290.71087891 235.2614209 291.29675781 236.29760742 291.90039062 C240.90053178 294.58710209 245.48992027 297.29066247 250.046875 300.0546875 C257.10035191 304.28425869 264.14217708 308.30634579 271.78399658 311.3782959 C278.76443248 314.4185432 286.08364835 317.61701358 289.28318787 324.93484497 C291.25138326 333.08548498 291.12398933 341.41587014 290.95516109 349.74658012 C290.89886793 353.39899601 290.95127553 357.0502858 290.98565674 360.70275879 C291.02552646 366.83419924 290.9734042 372.95978457 290.86816406 379.09033203 C290.74838873 386.1484326 290.7871878 393.19256262 290.90834498 400.25032473 C291.0086854 406.34281379 291.02204894 412.43113125 290.96469426 418.52418089 C290.9306396 422.14904589 290.92504523 425.76737406 290.99849701 429.39179993 C291.38071101 451.18295664 291.38071101 451.18295664 285.82252502 457.45851135 C280.57171433 461.65548013 274.83129633 464.40515548 268.62153339 466.89701748 C264.9803548 468.42900496 261.82273303 470.4008216 258.5 472.53125 C257.42016846 473.18988037 256.34033691 473.84851074 255.2277832 474.52709961 C254.16261475 475.17815674 253.09744629 475.82921387 252 476.5 C238.69466941 484.6095472 225.30359281 492.56860929 211.84765625 500.42578125 C202.44150969 505.9249191 193.12129447 511.55972923 183.81570435 517.22686768 C173.903402 523.26133941 163.94265438 529.20768499 153.95141602 535.11083984 C143.23733662 541.44270501 132.56556165 547.8438402 121.89990234 554.25683594 C117.39333676 556.96578343 112.88412103 559.67030908 108.375 562.375 C106.74738171 563.35153896 105.11977706 564.32810066 103.4921875 565.3046875 C95.43880208 570.13671875 87.38541667 574.96875 79.33203125 579.80078125 C78.10371582 580.53784302 78.10371582 580.53784302 76.85058594 581.28979492 C75.1547946 582.30717185 73.45883025 583.32426046 71.76269531 584.34106445 C67.45097848 586.92637511 63.14235445 589.51658058 58.83984375 592.1171875 C50.56500909 597.11213547 42.26226887 602.01417218 33.80908203 606.70117188 C26.9791877 610.51691005 20.38812186 614.69955484 13.77734375 618.87939453 C11.23806121 620.48039822 8.68697243 622.06057718 6.125 623.625 C5.36445313 624.09164062 4.60390625 624.55828125 3.8203125 625.0390625 C2 626 2 626 0 626 C0 551.09 0 476.18 0 399 C31.02 399 62.04 399 94 399 C94 419.46 94 439.92 94 461 C102.58961684 456.34223272 102.58961684 456.34223272 111.015625 451.44921875 C112.03140625 450.83780029 113.0471875 450.22638184 114.09375 449.59643555 C115.1353125 448.96648682 116.176875 448.33653809 117.25 447.6875 C118.34828125 447.02596924 119.4465625 446.36443848 120.578125 445.68286133 C123.71984067 443.79037591 126.86001863 441.89536099 130 440 C132.66555345 438.39397616 135.33217356 436.789745 138 435.1875 C138.5782251 434.84009766 139.1564502 434.49269531 139.75219727 434.13476562 C144.91473882 431.03912828 150.10683164 427.99444075 155.29907227 424.94897461 C162.64389057 420.63432049 169.94595704 416.24907335 177.24609375 411.859375 C178.01679199 411.39724609 178.78749023 410.93511719 179.58154297 410.45898438 C181.30956791 409.41651748 183.03194933 408.36467242 184.75048828 407.30664062 C185.64880371 406.75685547 186.54711914 406.20707031 187.47265625 405.640625 C188.70060913 404.88313965 188.70060913 404.88313965 189.95336914 404.11035156 C192 403 192 403 194 403 C194 387.82 194 372.64 194 357 C129.98 357 65.96 357 0 357 C0 239.19 0 121.38 0 0 Z " fill="#020202" transform="translate(397,237)"/>
<path d="M0 0 C4.16873393 1.66749357 7.93476147 3.53862086 11.8125 5.75 C12.83597534 6.32947388 12.83597534 6.32947388 13.88012695 6.9206543 C21.22320665 11.09537144 28.50971379 15.36789375 35.80004883 19.63378906 C42.34515289 23.46111951 48.91045887 27.24974716 55.5 31 C63.02839854 35.28546223 70.52255485 39.62625341 78 44 C88.18195524 49.95531249 98.40535723 55.83460277 108.65844727 61.66650391 C111.77424852 63.44092852 114.88690758 65.22082699 118 67 C118.34239884 120.98169841 118.66080705 174.96349545 118.84686279 228.94598389 C118.84962393 229.74505813 118.85238508 230.54413237 118.85522989 231.36742098 C118.91508935 248.73384907 118.9704928 266.10028871 119.02130659 283.46674557 C119.04625312 291.98336679 119.07218422 300.49998488 119.09863281 309.01660156 C119.10124799 309.8641031 119.10386317 310.71160464 119.1065576 311.58478805 C119.19177108 339.05037918 119.3419853 366.51514689 119.52594442 393.98023925 C119.71465806 422.20647968 119.83772252 450.43226452 119.8782998 478.65912514 C119.88406282 482.64678232 119.89057555 486.63443795 119.89754486 490.6220932 C119.89889332 491.4069136 119.90024178 492.19173399 119.9016311 493.00033683 C119.92525771 505.62948155 120.01799281 518.25721673 120.13664068 530.88578681 C120.25447454 543.58495564 120.29933976 556.28272865 120.27002755 568.98242489 C120.25616126 575.86322636 120.27433688 582.7402568 120.3841095 589.62030029 C120.48150301 595.92196307 120.48635247 602.21672099 120.4179779 608.51870283 C120.40953053 610.79629487 120.4348908 613.07431876 120.49766365 615.35106125 C120.927166 631.89240815 120.927166 631.89240815 116.07870239 637.03972334 C111.31932901 640.75667893 106.12541169 643.33707603 100.62486324 645.77254042 C96.32198076 647.7846888 92.3384792 650.30254292 88.3125 652.8125 C47.49218749 677.30468751 47.49218749 677.30468751 44.89282227 678.86425781 C43.23179461 679.86090662 41.57082333 680.85764936 39.90991211 681.85449219 C36.23683842 684.05886161 32.56308933 686.26207021 28.88671875 688.4609375 C27.61195058 689.22391057 26.33720998 689.98692972 25.0625 690.75 C24.464375 691.10763428 23.86625 691.46526855 23.25 691.83374023 C20.27219128 693.61886425 17.30857733 695.42337959 14.36328125 697.26171875 C13.77603271 697.62749023 13.18878418 697.99326172 12.58374023 698.37011719 C10.98836817 699.36668336 9.39639391 700.36868323 7.8046875 701.37109375 C5 703 5 703 0 705 C0 472.35 0 239.7 0 0 Z " fill="#FDFDFC" transform="translate(144,200)"/>
<path d="M0 0 C0.99 0 1.98 0 3 0 C3.07589768 6.2295758 3.12853504 12.45903295 3.16479492 18.68896484 C3.17990645 20.80945288 3.2003964 22.92990954 3.22631836 25.05029297 C3.26259786 28.09350311 3.27970242 31.13630103 3.29296875 34.1796875 C3.30845261 35.13181122 3.32393646 36.08393494 3.33988953 37.06491089 C3.34011612 37.94567291 3.34034271 38.82643494 3.34057617 39.73388672 C3.34723801 40.51110077 3.35389984 41.28831482 3.36076355 42.08908081 C3.24171158 42.71968414 3.12265961 43.35028748 3 44 C2.01 44.66 1.02 45.32 0 46 C0 30.82 0 15.64 0 0 Z " fill="#2B2F2C" transform="translate(591,594)"/>
<path d="M0 0 C3.63 1.65 7.26 3.3 11 5 C9.68 5.99 8.36 6.98 7 8 C6.01 7.34 5.02 6.68 4 6 C3.01 6.495 3.01 6.495 2 7 C1.67 24.16 1.34 41.32 1 59 C0.67 59 0.34 59 0 59 C0 39.53 0 20.06 0 0 Z " fill="#141514" transform="translate(50,37)"/>
<path d="M0 0 C0.99 0.495 0.99 0.495 2 1 C2.66 2.98 3.32 4.96 4 7 C25.78 7.495 25.78 7.495 48 8 C48 8.33 48 8.66 48 9 C32.16 9 16.32 9 0 9 C0 6.03 0 3.06 0 0 Z " fill="#101210" transform="translate(398,585)"/>
<path d="M0 0 C0.66 0 1.32 0 2 0 C3.06924537 3.20773612 3.16684956 5.62984818 3.1875 9 C3.20167969 10.051875 3.21585938 11.10375 3.23046875 12.1875 C3 15 3 15 1 18 C1.66 18 2.32 18 3 18 C2.67 18.99 2.34 19.98 2 21 C-0.0625 21.6875 -0.0625 21.6875 -2 22 C-2.33 21.01 -2.66 20.02 -3 19 C-2.34 19 -1.68 19 -1 19 C-0.67 12.73 -0.34 6.46 0 0 Z " fill="#F2F2EE" transform="translate(686,673)"/>
<path d="M0 0 C0.99 0.33 1.98 0.66 3 1 C3 2.32 3 3.64 3 5 C3.33 4.34 3.66 3.68 4 3 C5.98 3 7.96 3 10 3 C10.33 3.66 10.66 4.32 11 5 C7.37 6.98 3.74 8.96 0 11 C0 7.37 0 3.74 0 0 Z " fill="#0E0F0C" transform="translate(50,1060)"/>
<path d="M0 0 C0.66 0.33 1.32 0.66 2 1 C1.67 1.66 1.34 2.32 1 3 C0.34 3 -0.32 3 -1 3 C-1 3.66 -1 4.32 -1 5 C-1.66 5 -2.32 5 -3 5 C-3 5.99 -3 6.98 -3 8 C-6.61973402 9.31626692 -9.09567131 10 -13 10 C-11.64649404 5.93948213 -9.72487336 5.35771547 -6.0625 3.25 C-4.98097656 2.61578125 -3.89945313 1.9815625 -2.78515625 1.328125 C-1.86605469 0.88984375 -0.94695313 0.4515625 0 0 Z " fill="#EDEDE9" transform="translate(756,648)"/>
<path d="M0 0 C1 3 1 3 0.0625 5.1875 C-0.288125 5.785625 -0.63875 6.38375 -1 7 C-1.66 7 -2.32 7 -3 7 C-3.33 7.66 -3.66 8.32 -4 9 C-5.98 9 -7.96 9 -10 9 C-10.33 8.01 -10.66 7.02 -11 6 C-7.37 4.02 -3.74 2.04 0 0 Z " fill="#F0F0ED" transform="translate(799,623)"/>
<path d="M0 0 C0 0.99 0 1.98 0 3 C-0.66 3.66 -1.32 4.32 -2 5 C-2.495 5.53625 -2.99 6.0725 -3.5 6.625 C-5 8 -5 8 -7 8 C-7 8.66 -7 9.32 -7 10 C-8.32 10.33 -9.64 10.66 -11 11 C-11 10.34 -11 9.68 -11 9 C-11.66 8.67 -12.32 8.34 -13 8 C-8.71 5.36 -4.42 2.72 0 0 Z " fill="#E6E5E4" transform="translate(855,589)"/>
<path d="M0 0 C3.8063457 0.67170806 7.35206816 1.72746564 11 3 C10.34 4.32 9.68 5.64 9 7 C5.40608886 5.66511872 2.24509304 4.03977277 -1 2 C-0.67 1.34 -0.34 0.68 0 0 Z " fill="#141515" transform="translate(645,486)"/>
<path d="M0 0 C0.66 0 1.32 0 2 0 C2 4.62 2 9.24 2 14 C1.01 13.67 0.02 13.34 -1 13 C-1.02686553 11.02090602 -1.04633375 9.04171029 -1.0625 7.0625 C-1.07410156 5.96035156 -1.08570313 4.85820313 -1.09765625 3.72265625 C-1 1 -1 1 0 0 Z " fill="#0B0C0C" transform="translate(489,676)"/>
<path d="M0 0 C0.99 0.33 1.98 0.66 3 1 C-6.1 8 -6.1 8 -9 8 C-8.67 6.35 -8.34 4.7 -8 3 C-7.05125 2.690625 -6.1025 2.38125 -5.125 2.0625 C-2.13919592 1.12605258 -2.13919592 1.12605258 0 0 Z " fill="#161716" transform="translate(184,988)"/>
<path d="M0 0 C0 0.66 0 1.32 0 2 C0.66 2.33 1.32 2.66 2 3 C-1.63 4.98 -5.26 6.96 -9 9 C-8.67 7.68 -8.34 6.36 -8 5 C-6.68 4.67 -5.36 4.34 -4 4 C-4 3.01 -4 2.02 -4 1 C-2 0 -2 0 0 0 Z " fill="#11120F" transform="translate(198,979)"/>
<path d="M0 0 C0.33 0.99 0.66 1.98 1 3 C0.34 3 -0.32 3 -1 3 C-0.67 3.99 -0.34 4.98 0 6 C-6.5 8.125 -6.5 8.125 -11 7 C-7.37 4.69 -3.74 2.38 0 0 Z " fill="#E8E9E6" transform="translate(561,765)"/>
<path d="M0 0 C0.55171875 0.38929688 1.1034375 0.77859375 1.671875 1.1796875 C-3.953125 4.1796875 -3.953125 4.1796875 -7.328125 4.1796875 C-7.328125 4.8396875 -7.328125 5.4996875 -7.328125 6.1796875 C-9.308125 7.1696875 -9.308125 7.1696875 -11.328125 8.1796875 C-11.658125 7.1896875 -11.988125 6.1996875 -12.328125 5.1796875 C-10.75765757 4.11872287 -9.17117983 3.08142515 -7.578125 2.0546875 C-6.69640625 1.47460938 -5.8146875 0.89453125 -4.90625 0.296875 C-2.328125 -0.8203125 -2.328125 -0.8203125 0 0 Z " fill="#161715" transform="translate(591.328125,640.8203125)"/>
<path d="M0 0 C0.515625 0.2475 1.03125 0.495 1.5625 0.75 C0.5725 1.08 -0.4175 1.41 -1.4375 1.75 C-2.17073796 3.76508358 -2.17073796 3.76508358 -2.4375 5.75 C-3.4275 5.75 -4.4175 5.75 -5.4375 5.75 C-5.7675 6.41 -6.0975 7.07 -6.4375 7.75 C-7.4275 6.43 -8.4175 5.11 -9.4375 3.75 C-3.0375 -0.31153846 -3.0375 -0.31153846 0 0 Z " fill="#EFEFED" transform="translate(871.4375,581.25)"/>
<path d="M0 0 C0.66 0.33 1.32 0.66 2 1 C1.401875 1.5775 0.80375 2.155 0.1875 2.75 C-2.01992786 4.89775728 -2.01992786 4.89775728 -3.5625 7.25 C-4.2740625 8.11625 -4.2740625 8.11625 -5 9 C-5.99 9 -6.98 9 -8 9 C-8 8.34 -8 7.68 -8 7 C-8.66 6.67 -9.32 6.34 -10 6 C-8.3811004 4.96951963 -6.75467511 3.95085322 -5.125 2.9375 C-4.22007812 2.36902344 -3.31515625 1.80054688 -2.3828125 1.21484375 C-1.20332031 0.61349609 -1.20332031 0.61349609 0 0 Z " fill="#E8E7E5" transform="translate(536,780)"/>
<path d="M0 0 C0.66 0.33 1.32 0.66 2 1 C1.21625 1.763125 0.4325 2.52625 -0.375 3.3125 C-3.07257717 5.90891805 -3.07257717 5.90891805 -5 9 C-7.475 8.01 -7.475 8.01 -10 7 C-6.81404865 4.36021174 -3.69029454 1.89501612 0 0 Z " fill="#151614" transform="translate(510,687)"/>
<path d="M0 0 C1.32 0.99 2.64 1.98 4 3 C3.030625 3.12375 2.06125 3.2475 1.0625 3.375 C0.051875 3.58125 -0.95875 3.7875 -2 4 C-2.33 4.66 -2.66 5.32 -3 6 C-3.99 6.33 -4.98 6.66 -6 7 C-6.99 6.34 -7.98 5.68 -9 5 C-6.03 3.35 -3.06 1.7 0 0 Z " fill="#E9E9E5" transform="translate(637,720)"/>
<path d="M0 0 C1.32 0 2.64 0 4 0 C4.33 0.99 4.66 1.98 5 3 C1.04 4.98 1.04 4.98 -3 7 C-3.33 5.35 -3.66 3.7 -4 2 C-2.68 2 -1.36 2 0 2 C0 1.34 0 0.68 0 0 Z " fill="#131614" transform="translate(824,603)"/>
<path d="M0 0 C0.33 0.99 0.66 1.98 1 3 C-0.76956458 5.14210449 -1.87575652 5.96060573 -4.5625 6.8125 C-5.7690625 6.9053125 -5.7690625 6.9053125 -7 7 C-7.66 6.34 -8.32 5.68 -9 5 C-6.03 3.35 -3.06 1.7 0 0 Z " fill="#EEEFEA" transform="translate(162,1004)"/>
<path d="M0 0 C0 0.99 0 1.98 0 3 C-0.66 3.66 -1.32 4.32 -2 5 C-2.99 5 -3.98 5 -5 5 C-5.33 5.99 -5.66 6.98 -6 8 C-6.66 8 -7.32 8 -8 8 C-8.33 7.01 -8.66 6.02 -9 5 C-6.03 3.35 -3.06 1.7 0 0 Z " fill="#1C1E1C" transform="translate(740,547)"/>
<path d="M0 0 C2.97 1.65 5.94 3.3 9 5 C9 5.66 9 6.32 9 7 C7.02 7 5.04 7 3 7 C3 6.34 3 5.68 3 5 C2.01 4.34 1.02 3.68 0 3 C0 2.01 0 1.02 0 0 Z " fill="#171716" transform="translate(849,497)"/>
<path d="M0 0 C0.33 0.66 0.66 1.32 1 2 C0.67 2.99 0.34 3.98 0 5 C-0.99 5 -1.98 5 -3 5 C-3 5.66 -3 6.32 -3 7 C-3.99 7 -4.98 7 -6 7 C-6.33 6.01 -6.66 5.02 -7 4 C-4.69 2.68 -2.38 1.36 0 0 Z " fill="#EAE9E6" transform="translate(513,794)"/>
<path d="M0 0 C1.32 0.66 2.64 1.32 4 2 C1.44008376 4.01136276 -1.04590299 5.62845496 -4 7 C-4.33 6.01 -4.66 5.02 -5 4 C-3.35 3.34 -1.7 2.68 0 2 C0 1.34 0 0.68 0 0 Z " fill="#191B17" transform="translate(113,1029)"/>
<path d="M0 0 C2.13093906 1.06546953 3.36587557 2.29159719 5 4 C3.88625 3.938125 2.7725 3.87625 1.625 3.8125 C-0.169375 3.9053125 -0.169375 3.9053125 -2 4 C-2.99 5.485 -2.99 5.485 -4 7 C-4.66 6.01 -5.32 5.02 -6 4 C-4.02 2.68 -2.04 1.36 0 0 Z " fill="#E8E8E3" transform="translate(228,964)"/>
<path d="M0 0 C-2.68841859 2.25245881 -4.64641875 3.88213958 -8 5 C-8 3.35 -8 1.7 -8 0 C-4.94736336 -0.98120464 -3.05263664 -0.98120464 0 0 Z " fill="#121613" transform="translate(775,637)"/>
<path d="M0 0 C0.66 0.33 1.32 0.66 2 1 C1.34 2.32 0.68 3.64 0 5 C-0.66 5 -1.32 5 -2 5 C-2 5.99 -2 6.98 -2 8 C-2.66 8 -3.32 8 -4 8 C-4.33 6.35 -4.66 4.7 -5 3 C-2.625 1.4375 -2.625 1.4375 0 0 Z " fill="#E6E7E3" transform="translate(285,930)"/>
<path d="M0 0 C0 1.65 0 3.3 0 5 C-0.598125 4.773125 -1.19625 4.54625 -1.8125 4.3125 C-2.8953125 4.1578125 -2.8953125 4.1578125 -4 4 C-5.77190909 5.35444301 -5.77190909 5.35444301 -7 7 C-7.33 6.01 -7.66 5.02 -8 4 C-1.125 0 -1.125 0 0 0 Z " fill="#E7E9E4" transform="translate(350,892)"/>
<path d="M0 0 C0.99 0.66 1.98 1.32 3 2 C3.99 2 4.98 2 6 2 C6.33 2.99 6.66 3.98 7 5 C2.66905042 5 0.72965139 4.03435531 -3 2 C-2.01 1.34 -1.02 0.68 0 0 Z " fill="#E6E6E3" transform="translate(280,166)"/>
<path d="M0 0 C0.99 0 1.98 0 3 0 C3.33 0.99 3.66 1.98 4 3 C0.25 6 0.25 6 -2 6 C-2 4.68 -2 3.36 -2 2 C-1.34 2 -0.68 2 0 2 C0 1.34 0 0.68 0 0 Z " fill="#151816" transform="translate(607,733)"/>
<path d="M0 0 C3 3.75 3 3.75 3 6 C1.02 5.34 -0.96 4.68 -3 4 C-3 3.01 -3 2.02 -3 1 C-2.01 0.67 -1.02 0.34 0 0 Z " fill="#E7E7E1" transform="translate(488,284)"/>
<path d="M0 0 C0.66 0.66 1.32 1.32 2 2 C1.01 2.33 0.02 2.66 -1 3 C-1 3.66 -1 4.32 -1 5 C-3.31 5.33 -5.62 5.66 -8 6 C-5.63379989 3.38472619 -3.057952 1.73559438 0 0 Z " fill="#222321" transform="translate(187,879)"/>
<path d="M0 0 C0.66 0.33 1.32 0.66 2 1 C1.67 2.32 1.34 3.64 1 5 C-0.65 5.33 -2.3 5.66 -4 6 C-4.33 5.01 -4.66 4.02 -5 3 C-2.625 1.4375 -2.625 1.4375 0 0 Z " fill="#F0F1EE" transform="translate(620,730)"/>
<path d="M0 0 C0.66 0.99 1.32 1.98 2 3 C1.34 3 0.68 3 0 3 C0.33 4.32 0.66 5.64 1 7 C0.34 7 -0.32 7 -1 7 C-1 6.34 -1 5.68 -1 5 C-1.99 4.67 -2.98 4.34 -4 4 C-4 3.34 -4 2.68 -4 2 C-2.68 1.34 -1.36 0.68 0 0 Z " fill="#F2F2EF" transform="translate(861,586)"/>
<path d="M0 0 C-2.68841859 2.25245881 -4.64641875 3.88213958 -8 5 C-8 3.68 -8 2.36 -8 1 C-5.29120665 -0.35439668 -2.99066732 -0.06501451 0 0 Z " fill="#121613" transform="translate(317,911)"/>
<path d="M0 0 C-0.75 2.9375 -0.75 2.9375 -2 6 C-4.125 6.875 -4.125 6.875 -6 7 C-5.37162381 3.35541809 -4.14650034 0 0 0 Z " fill="#161917" transform="translate(435,837)"/>
<path d="M0 0 C0.99 0.99 1.98 1.98 3 3 C1.02 3.99 -0.96 4.98 -3 6 C-3.33 5.01 -3.66 4.02 -4 3 C-2.68 2.01 -1.36 1.02 0 0 Z " fill="#131613" transform="translate(593,742)"/>
<path d="M0 0 C1.98 0.99 3.96 1.98 6 3 C5.67 3.66 5.34 4.32 5 5 C3.35 5 1.7 5 0 5 C-0.33 4.01 -0.66 3.02 -1 2 C-0.67 1.34 -0.34 0.68 0 0 Z " fill="#141514" transform="translate(519,307)"/>
<path d="M0 0 C0.66 0.33 1.32 0.66 2 1 C1.67 2.65 1.34 4.3 1 6 C-0.32 5.67 -1.64 5.34 -3 5 C-2.625 3.0625 -2.625 3.0625 -2 1 C-1.34 0.67 -0.68 0.34 0 0 Z " fill="#EDECEA" transform="translate(98,1042)"/>
<path d="M0 0 C2 1 2 1 3.125 4.0625 C3.41375 5.031875 3.7025 6.00125 4 7 C2.68 7.33 1.36 7.66 0 8 C0 5.36 0 2.72 0 0 Z " fill="#0A0C0A" transform="translate(398,585)"/>
<path d="M0 0 C0.66 1.32 1.32 2.64 2 4 C-0.31 5.32 -2.62 6.64 -5 8 C-5 5 -5 5 -3.625 3.3125 C-2 2 -2 2 0 2 C0 1.34 0 0.68 0 0 Z " fill="#1D1D1D" transform="translate(875,573)"/>
<path d="M0 0 C0.66 1.32 1.32 2.64 2 4 C1.01 3.67 0.02 3.34 -1 3 C-1 3.66 -1 4.32 -1 5 C-1.99 5.33 -2.98 5.66 -4 6 C-4.33 5.01 -4.66 4.02 -5 3 C-3.35 2.01 -1.7 1.02 0 0 Z " fill="#EDEBEB" transform="translate(901,562)"/>
<path d="M0 0 C0.33 0.99 0.66 1.98 1 3 C-3.26826873 3 -3.93882432 2.62386487 -7 0 C-3.89953913 -1.03348696 -2.94389782 -1.17755913 0 0 Z " fill="#1E1F1F" transform="translate(727,532)"/>
<path d="M0 0 C0.66 1.32 1.32 2.64 2 4 C0.02 4.33 -1.96 4.66 -4 5 C-4.33 4.34 -4.66 3.68 -5 3 C-3.35 2.01 -1.7 1.02 0 0 Z " fill="#181B19" transform="translate(535,672)"/>
<path d="M0 0 C0.33 0.66 0.66 1.32 1 2 C0.67 2.99 0.34 3.98 0 5 C-0.99 5.33 -1.98 5.66 -3 6 C-3.66 5.67 -4.32 5.34 -5 5 C-5 4.34 -5 3.68 -5 3 C-2.5 1.375 -2.5 1.375 0 0 Z " fill="#151615" transform="translate(547,665)"/>
<path d="M0 0 C2.91517292 1.07401108 4.77810176 1.77810176 7 4 C2.25 5.125 2.25 5.125 0 4 C0 2.68 0 1.36 0 0 Z " fill="#1C1D1C" transform="translate(654,385)"/>
<path d="M0 0 C0.66 0.33 1.32 0.66 2 1 C1.25 2.9375 1.25 2.9375 0 5 C-2.125 5.75 -2.125 5.75 -4 6 C-3.6875 4.125 -3.6875 4.125 -3 2 C-2.01 1.34 -1.02 0.68 0 0 Z " fill="#111211" transform="translate(575,648)"/>
<path d="M0 0 C0.99 0 1.98 0 3 0 C3.33 1.32 3.66 2.64 4 4 C3.34 4 2.68 4 2 4 C1.67 5.32 1.34 6.64 1 8 C0.67 5.36 0.34 2.72 0 0 Z " fill="#0C0D0D" transform="translate(50,40)"/>
</svg>
